<svg width="22" height="14" viewBox="0 0 22 14" fill="none" xmlns="http://www.w3.org/2000/svg">
<rect width="22" height="14" rx="2" fill="#EFECE8"/>
<path d="M8.16135 1.59938C8.16135 1.69693 8.16135 1.77168 8.16135 1.84644C8.16135 4.73949 8.16274 7.63255 8.16042 10.5256C8.1595 11.4322 7.68406 12.0959 6.86975 12.3347C6.73087 12.3753 6.58366 12.4077 6.44015 12.409C5.5689 12.4159 4.69719 12.4127 3.82594 12.4122C3.78845 12.4122 3.75095 12.4058 3.69401 12.4004C3.69401 11.1551 3.69401 9.91527 3.69401 8.68685C4.20972 8.74291 4.71849 8.80946 5.22957 8.85094C5.76287 8.89379 6.2934 8.85413 6.80587 8.69323C7.48916 8.479 7.81739 8.05372 7.8322 7.34675C7.84562 6.71682 7.83266 6.08642 7.83775 5.45603C7.83914 5.30379 7.79331 5.23815 7.62712 5.2418C7.21881 5.25092 6.80957 5.25 6.4008 5.24226C6.24803 5.23952 6.20174 5.29422 6.20312 5.44054C6.20914 6.06318 6.20683 6.68582 6.20498 7.30846C6.20312 7.88644 5.87999 8.20824 5.29531 8.22921C4.79904 8.24699 4.33749 8.11526 3.88196 7.93931C3.72039 7.87686 3.66901 7.78889 3.66993 7.61887C3.67734 6.29017 3.67132 4.96102 3.67642 3.63232C3.67734 3.39848 3.67919 3.15827 3.73104 2.93219C3.90742 2.1614 4.63886 1.593 5.44206 1.58753C6.27488 1.58206 7.1077 1.58617 7.94099 1.58662C8.00117 1.58662 8.06182 1.59346 8.16135 1.59938Z" fill="#265797"/>
<path d="M8.83414 8.32989C9.98362 9.0054 11.2035 8.92518 12.4339 8.71779C12.8497 8.64759 12.8473 8.63437 12.8473 8.22323C12.8473 8.11018 12.8473 7.99714 12.8473 7.8449C12.7293 7.89048 12.6395 7.92284 12.5515 7.95885C11.9789 8.19542 11.3868 8.32123 10.7711 8.18084C10.1077 8.02951 9.81696 7.55956 9.88038 6.79607C9.92621 6.24134 10.3692 5.82929 10.9729 5.77824C11.522 5.73174 12.0469 5.82382 12.5511 6.04033C12.6339 6.07588 12.7191 6.10688 12.8455 6.15656C12.8455 5.90541 12.851 5.68251 12.8404 5.46008C12.8385 5.41997 12.7737 5.35889 12.7284 5.34886C11.609 5.10044 10.4905 5.01201 9.38087 5.39717C9.2869 5.42954 9.19801 5.47694 9.10959 5.52298C9.02256 5.56856 8.93969 5.62189 8.83044 5.68662C8.82628 5.60229 8.81979 5.53848 8.81979 5.47466C8.81933 4.78365 8.81655 4.09263 8.82026 3.40162C8.82535 2.36874 9.61929 1.58884 10.6678 1.58611C11.4701 1.58383 12.2719 1.58565 13.0742 1.58565C13.1501 1.58565 13.226 1.58565 13.3195 1.58565C13.3246 1.67773 13.332 1.75111 13.332 1.8245C13.3325 4.71801 13.3339 7.61152 13.3316 10.5046C13.3307 11.5078 12.7464 12.2175 11.7807 12.3953C11.6831 12.4131 11.5817 12.4144 11.4817 12.4144C10.6794 12.4158 9.8776 12.4154 9.07533 12.4154C8.99988 12.4154 8.92442 12.4154 8.83414 12.4154C8.83414 11.0438 8.83414 9.69551 8.83414 8.32989Z" fill="#CA4638"/>
<path d="M16.9635 6.94268C17.287 6.81778 17.5356 6.64913 17.6185 6.32459C17.7616 5.76394 17.3607 5.27485 16.7107 5.25479C15.8478 5.22836 14.9835 5.22198 14.1201 5.22608C13.8817 5.22745 13.815 5.15588 13.8252 4.92706C13.8511 4.32812 13.8257 3.72645 13.8738 3.12979C13.9409 2.29245 14.7205 1.60554 15.5802 1.59506C16.4288 1.58457 17.2778 1.59643 18.1264 1.58913C18.2962 1.58776 18.3319 1.65386 18.3314 1.80473C18.3282 4.75249 18.3328 7.69979 18.3263 10.6475C18.3245 11.607 17.506 12.4001 16.5352 12.4056C15.7172 12.4102 14.8997 12.402 14.0817 12.4102C13.8979 12.412 13.8243 12.3696 13.8261 12.1718C13.8354 11.1234 13.8359 10.075 13.8257 9.02666C13.8238 8.81744 13.9025 8.77141 14.096 8.77323C14.8983 8.78098 15.701 8.78417 16.5033 8.77186C16.7463 8.76822 16.9986 8.73859 17.2287 8.66566C17.6523 8.53119 17.8606 8.21987 17.856 7.81192C17.8514 7.44225 17.6245 7.16375 17.2083 7.01925C17.1371 6.9951 17.0644 6.97413 16.9635 6.94268Z" fill="#479951"/>
<path d="M15.3738 8.13627C14.7447 8.13764 14.7554 8.13764 14.7424 7.51591C14.7378 7.29028 14.8123 7.2251 15.0313 7.24105C15.2687 7.25837 15.509 7.24196 15.7474 7.24607C16.0511 7.25108 16.2465 7.43113 16.2455 7.69778C16.2446 7.96215 16.0682 8.12533 15.7664 8.13536C15.6359 8.13992 15.5048 8.13627 15.3738 8.13627Z" fill="#479951"/>
<path d="M15.3265 5.83065C15.4497 5.83111 15.5728 5.82746 15.6955 5.83156C15.9269 5.83977 16.0867 5.97651 16.1079 6.17889C16.1329 6.41911 16.0343 6.59824 15.7932 6.62878C15.483 6.66753 15.1659 6.65522 14.8515 6.65522C14.8177 6.65522 14.7696 6.59687 14.7543 6.55631C14.7367 6.50936 14.7474 6.45193 14.7469 6.39859C14.7432 5.83065 14.7432 5.83065 15.3265 5.83065Z" fill="#479951"/>
</svg>
